<svg width="24" height="24" viewBox="0 0 24 24" fill="none" xmlns="http://www.w3.org/2000/svg">
<path fill-rule="evenodd" clip-rule="evenodd" d="M8.66667 11.8334C8.66667 9.99503 10.1617 8.5 12 8.5C13.8384 8.5 15.3334 9.99503 15.3334 11.8334C15.3334 13.6717 13.8384 15.1668 12 15.1668C10.1617 15.1668 8.66667 13.6717 8.66667 11.8334ZM9.5 11.8334C9.5 13.2118 10.6217 14.3335 12 14.3335C13.3784 14.3335 14.5001 13.2118 14.5001 11.8334C14.5001 10.4551 13.3784 9.33338 12 9.33338C10.6217 9.33338 9.5 10.4551 9.5 11.8334Z"/>
<path fill-rule="evenodd" clip-rule="evenodd" d="M12 6C17.9834 6 21.7684 11.3676 21.926 11.5968C22.0335 11.7518 22.0226 11.9593 21.9018 12.1026C21.7093 12.3301 17.1342 17.6669 12 17.6669C6.8657 17.6669 2.29062 12.3301 2.09812 12.1026C1.96729 11.9468 1.96729 11.7193 2.09812 11.5643C2.29062 11.3368 6.8657 6 12 6ZM2.97649 11.8335C3.97065 12.9085 7.88407 16.8335 12 16.8335C16.1509 16.8335 20.0867 12.8518 21.0451 11.811C20.2151 10.7526 16.8159 6.83337 12 6.83337C7.87825 6.83337 3.96901 10.7576 2.97649 11.8335Z"/>
</svg>
