<svg width="24" height="24" viewBox="0 0 24 24" fill="none" xmlns="http://www.w3.org/2000/svg">
<path fill-rule="evenodd" clip-rule="evenodd" d="M18.0381 5.10663C17.8985 4.96446 17.6717 4.96446 17.5322 5.10663L11.4075 11.2719L5.36953 17.5016C5.23001 17.6438 5.23001 17.8749 5.36953 18.0171C5.43965 18.0878 5.53121 18.1236 5.6228 18.1236C5.71439 18.1236 5.80594 18.0879 5.87536 18.0171L7.39774 16.4657C7.41349 16.4761 7.43013 16.4856 7.44763 16.494C8.94352 17.2166 10.4753 17.5816 11.9995 17.5816C17.134 17.5816 21.7092 12.2446 21.9017 12.0171C22.0333 11.8621 22.0325 11.6346 21.9008 11.4787C21.8074 11.368 19.5907 8.78082 16.5225 7.16666L18.0381 5.62213C18.1776 5.47995 18.1776 5.24881 18.0381 5.10663ZM15.9343 7.76609L14.3482 9.38245L14.3572 9.39116C14.9872 10.0195 15.3339 10.8571 15.3339 11.748C15.3339 13.5864 13.8388 15.0815 12.0004 15.0815C11.1264 15.0815 10.3037 14.7478 9.67953 14.1403L8.01226 15.8394C9.32963 16.4429 10.6695 16.7482 11.9995 16.7482C16.1205 16.7482 20.0299 12.8238 21.0233 11.748C20.3691 11.0413 18.4556 9.10616 16.0605 7.86609C16.0108 7.84042 15.9684 7.80616 15.9343 7.76609ZM12.0004 14.2481C11.3463 14.2481 10.7313 13.9991 10.2632 13.5455L13.7647 9.97709L13.768 9.98037C14.2397 10.4521 14.5005 11.0796 14.5005 11.748C14.5005 13.1264 13.3788 14.2481 12.0004 14.2481Z" fill="white"/>
<path d="M12.0006 5.91419C12.8665 5.91419 13.7865 6.07501 14.7349 6.39421C14.9532 6.46757 15.0699 6.70341 14.9965 6.92174C14.924 7.14093 14.6873 7.26175 14.469 7.18343C13.6073 6.89427 12.7764 6.74759 12.0006 6.74759C7.84953 6.74759 3.91433 10.7286 2.9551 11.7703C3.40431 12.3429 4.60437 13.7504 6.35778 14.9163C6.54947 15.043 6.60197 15.3022 6.47446 15.493C6.39446 15.6155 6.26195 15.6805 6.12776 15.6805C6.04776 15.6805 5.96858 15.658 5.89775 15.6105C3.51013 14.0246 2.13256 12.0687 2.07506 11.9862C1.9667 11.8303 1.9767 11.622 2.09838 11.4786C2.29089 11.2511 6.86612 5.91419 12.0006 5.91419Z" fill="white"/>
<path d="M12.0005 8.4145C12.1989 8.4145 12.3922 8.43868 12.5814 8.472C12.8073 8.512 12.9589 8.72869 12.9189 8.95452C12.8789 9.18036 12.6581 9.33704 12.4364 9.29204C12.2947 9.26704 12.1506 9.24786 12.0005 9.24786C10.6222 9.24786 9.50041 10.3696 9.50041 11.748C9.50041 11.898 9.51959 12.0421 9.54541 12.1838C9.58541 12.4097 9.43373 12.6264 9.20789 12.6664C9.18289 12.6714 9.15875 12.673 9.13457 12.673C8.93706 12.673 8.76119 12.5305 8.72537 12.3288C8.69123 12.1397 8.66705 11.9463 8.66705 11.748C8.66705 9.90957 10.1621 8.4145 12.0005 8.4145Z" fill="white"/>
</svg>
